<svg width="38" height="38" viewBox="0 0 38 38" fill="none" xmlns="http://www.w3.org/2000/svg">
<g clip-path="url(#clip0_75_6)">
<path d="M19.001 0C8.51108 0 0.000976562 8.49937 0.000976562 18.99C0.000976562 29.4907 8.51108 38 19.0009 38C29.4966 38 37.9995 29.4906 37.9995 18.99C37.9996 8.49937 29.4966 0 19.001 0ZM20.355 29.5621C19.9137 29.9548 19.4023 30.1522 18.8229 30.1522C18.2235 30.1522 17.7007 29.9584 17.2544 29.57C16.8074 29.1823 16.5834 28.6394 16.5834 27.942C16.5834 27.3233 16.8002 26.8026 17.2322 26.3806C17.6642 25.9586 18.1942 25.7476 18.8229 25.7476C19.4416 25.7476 19.9623 25.9586 20.3851 26.3806C20.8071 26.8026 21.0188 27.3233 21.0188 27.942C21.018 28.6294 20.7969 29.1695 20.355 29.5621ZM25.8574 15.9208C25.5184 16.5495 25.1157 17.0917 24.6486 17.5488C24.183 18.0058 23.3455 18.774 22.1366 19.854C21.8033 20.1587 21.5351 20.4262 21.3341 20.6565C21.1332 20.8876 20.983 21.0985 20.8849 21.2902C20.7862 21.4819 20.7105 21.6736 20.6568 21.8653C20.6031 22.0562 20.5223 22.3931 20.4129 22.8744C20.2269 23.8959 19.6426 24.4065 18.6605 24.4065C18.1498 24.4065 17.7206 24.2398 17.3709 23.9058C17.0225 23.5718 16.8487 23.0761 16.8487 22.4181C16.8487 21.5934 16.9768 20.8789 17.2321 20.2745C17.4861 19.6701 17.8258 19.1401 18.2478 18.6831C18.6705 18.2261 19.2398 17.6839 19.9572 17.0551C20.5859 16.5051 21.0402 16.0903 21.3198 15.8106C21.6001 15.5302 21.8355 15.2184 22.0265 14.875C22.2189 14.531 22.3133 14.1583 22.3133 13.7557C22.3133 12.9697 22.0222 12.3073 21.4372 11.7673C20.8528 11.2273 20.0989 10.9569 19.1755 10.9569C18.0948 10.9569 17.2994 11.2294 16.7887 11.7745C16.278 12.3195 15.8468 13.122 15.4927 14.1827C15.1579 15.2928 14.5242 15.8478 13.5922 15.8478C13.0422 15.8478 12.578 15.654 12.1996 15.2663C11.822 14.8786 11.6331 14.4588 11.6331 14.0067C11.6331 13.074 11.9328 12.1284 12.5315 11.1707C13.131 10.213 14.005 9.41977 15.1543 8.79177C16.303 8.16306 17.6442 7.84831 19.1755 7.84831C20.5996 7.84831 21.8563 8.1115 22.9463 8.63726C24.0364 9.16222 24.8789 9.87681 25.4733 10.7808C26.067 11.6842 26.3645 12.6663 26.3645 13.727C26.3659 14.5604 26.1964 15.2921 25.8574 15.9208Z" fill="white"/>
</g>
<defs>
<clipPath id="clip0_75_6">
<rect width="38" height="38" fill="white"/>
</clipPath>
</defs>
</svg>
