<svg width="38" height="38" viewBox="0 0 38 38" fill="none" xmlns="http://www.w3.org/2000/svg">
<path d="M36.4178 15.2152L32.9667 14.5655C32.6689 13.5507 32.2629 12.5721 31.7535 11.6419L33.7354 8.74043C34.0914 8.21953 34.0257 7.51816 33.5795 7.07191L30.4147 3.90715C29.9685 3.4609 29.2671 3.39527 28.7462 3.75129L25.8448 5.73316C24.9145 5.22375 23.9359 4.8177 22.9212 4.52074L22.2715 1.06969C22.155 0.449531 21.6128 0 20.982 0H16.5055C15.8747 0 15.3325 0.449531 15.216 1.06969L14.5663 4.52074C13.5516 4.81852 12.5729 5.22457 11.6427 5.73316L8.74125 3.75129C8.22035 3.39527 7.51898 3.4609 7.07273 3.90715L3.90797 7.07191C3.46172 7.51816 3.39609 8.21871 3.75211 8.74043L5.73398 11.6419C5.22457 12.5721 4.81852 13.5507 4.52074 14.5655L1.06969 15.2152C0.449531 15.3316 0 15.8739 0 16.5047V20.9811C0 21.612 0.449531 22.1542 1.06969 22.2707L4.52074 22.9204C4.81852 23.9351 5.22457 24.9137 5.73398 25.8439L3.75211 28.7454C3.39609 29.2663 3.46172 29.9677 3.90797 30.4139L7.07273 33.5787C7.51898 34.0249 8.22035 34.0905 8.74125 33.7345L11.6427 31.7527C12.5729 32.2621 13.5516 32.6681 14.5663 32.9659L15.216 36.417C15.3325 37.0371 15.8747 37.4866 16.5055 37.4866H20.982C21.6128 37.4866 22.155 37.0371 22.2715 36.417L22.9212 32.9659C23.9359 32.6681 24.9145 32.2621 25.8448 31.7527L28.7462 33.7345C29.2671 34.0905 29.9685 34.0249 30.4147 33.5787L33.5795 30.4139C34.0257 29.9677 34.0914 29.2671 33.7354 28.7454L31.7535 25.8439C32.2629 24.9137 32.6689 23.9351 32.9667 22.9204L36.4178 22.2707C37.0379 22.1542 37.4875 21.612 37.4875 20.9811V16.5047C37.4875 15.8739 37.0379 15.3325 36.4178 15.2152ZM34.8625 19.8926L31.6649 20.4947C31.1522 20.5915 30.7453 20.982 30.6288 21.4905C30.3261 22.8047 29.8085 24.054 29.0891 25.2025C28.8127 25.6446 28.8233 26.2082 29.1178 26.6388L30.9545 29.3278L29.3286 30.9537L26.6396 29.117C26.209 28.8225 25.6454 28.811 25.2033 29.0883C24.054 29.8077 22.8047 30.3253 21.4914 30.628C20.9828 30.7453 20.5923 31.1514 20.4955 31.6641L19.8934 34.8616H17.5941L16.992 31.6641C16.8952 31.1514 16.5047 30.7445 15.9961 30.628C14.682 30.3253 13.4334 29.8077 12.2842 29.0883C11.842 28.8118 11.2785 28.8225 10.8478 29.117L8.15883 30.9537L6.53297 29.3278L8.36965 26.6388C8.66414 26.2082 8.6748 25.6446 8.39836 25.2025C7.67895 24.0532 7.16133 22.8039 6.85863 21.4905C6.74133 20.982 6.33527 20.5915 5.82258 20.4947L2.625 19.8926V17.5932L5.82258 16.9911C6.33527 16.8943 6.74215 16.5039 6.85863 15.9953C7.16133 14.6811 7.67895 13.4318 8.39836 12.2834C8.6748 11.8412 8.66414 11.2777 8.36965 10.847L6.53297 8.15801L8.15883 6.53215L10.8478 8.36883C11.2785 8.6625 11.842 8.67399 12.2842 8.39754C13.4334 7.67813 14.6828 7.16051 15.9961 6.85781C16.5047 6.74051 16.8952 6.33445 16.992 5.82176L17.5941 2.62418H19.8934L20.4955 5.82176C20.5923 6.33445 20.9828 6.74133 21.4914 6.85781C22.8055 7.16051 24.054 7.67813 25.2033 8.39754C25.6454 8.67399 26.209 8.66332 26.6396 8.36883L29.3286 6.53215L30.9545 8.15801L29.1178 10.847C28.8233 11.2777 28.8127 11.8412 29.0891 12.2834C29.8085 13.4326 30.3261 14.682 30.6288 15.9953C30.7461 16.5039 31.1522 16.8943 31.6649 16.9911L34.8625 17.5932V19.8926Z" fill="white"/>
<path d="M18.7433 9.90527C13.8698 9.90527 9.90527 13.8698 9.90527 18.7433C9.90527 23.6168 13.8698 27.5814 18.7433 27.5814C23.6168 27.5814 27.5814 23.6168 27.5814 18.7433C27.5814 13.8698 23.6168 9.90527 18.7433 9.90527ZM18.7433 24.9564C15.3177 24.9564 12.5303 22.1689 12.5303 18.7433C12.5303 15.3177 15.3177 12.5303 18.7433 12.5303C22.1689 12.5303 24.9564 15.3177 24.9564 18.7433C24.9564 22.1689 22.1689 24.9564 18.7433 24.9564Z" fill="white"/>
</svg>
